<?xml version="1.0" encoding="UTF-8"?>
<svg width="82px" height="63px" viewBox="0 0 82 63" version="1.1" xmlns="http://www.w3.org/2000/svg" xmlns:xlink="http://www.w3.org/1999/xlink">
    <title>Pensacola Beach</title>
    <g id="Page-1" stroke="none" stroke-width="1" fill="none" fill-rule="evenodd">
        <g id="Pensacola-Beach">
            <path d="M3.168,16.854 C3.468,16.242 3.696,15.543 3.852,14.757 C4.008,13.971 4.11,13.098 4.158,12.138 L4.158,12.138 L8.154,12.138 L8.154,16.854 L10.098,16.854 L10.098,12.138 L14.094,12.138 L14.094,12.552 C14.094,13.044 14.079,13.494 14.049,13.902 C14.019,14.31 13.965,14.688 13.887,15.036 C13.809,15.384 13.701,15.705 13.563,15.999 C13.425,16.293 13.242,16.578 13.014,16.854 L13.014,16.854 L15.39,16.854 C15.606,16.506 15.774,15.96 15.894,15.216 C16.014,14.472 16.074,13.614 16.074,12.642 L16.074,12.642 L16.074,0.942 L2.214,0.942 L2.214,11.04 C2.214,12.276 2.109,13.356 1.899,14.28 C1.689,15.204 1.362,16.062 0.918,16.854 L0.918,16.854 L3.168,16.854 Z M14.094,5.694 L10.098,5.694 L10.098,2.706 L14.094,2.706 L14.094,5.694 Z M8.154,5.694 L4.176,5.694 L4.176,2.706 L8.154,2.706 L8.154,5.694 Z M14.094,10.392 L10.098,10.392 L10.098,7.422 L14.094,7.422 L14.094,10.392 Z M8.154,10.392 L4.176,10.392 L4.176,7.422 L8.154,7.422 L8.154,10.392 Z M21.474,16.854 C21.75,16.314 21.975,15.651 22.149,14.865 C22.323,14.079 22.41,13.158 22.41,12.102 L22.41,12.102 L22.41,9.834 L34.47,9.834 L34.47,2.022 L28.53,2.022 C28.422,1.746 28.311,1.473 28.197,1.203 C28.083,0.933 27.978,0.714 27.882,0.546 L27.882,0.546 L25.524,0.546 C25.608,0.726 25.701,0.948 25.803,1.212 C25.905,1.476 26.004,1.746 26.1,2.022 L26.1,2.022 L20.394,2.022 L20.394,12.102 C20.394,12.618 20.37,13.086 20.322,13.506 C20.274,13.926 20.202,14.322 20.106,14.694 C20.01,15.066 19.887,15.426 19.737,15.774 C19.587,16.122 19.416,16.482 19.224,16.854 L19.224,16.854 L21.474,16.854 Z M32.472,8.016 L22.41,8.016 L22.41,3.84 L32.472,3.84 L32.472,8.016 Z M51.21,12.606 L51.21,8.376 L53.118,8.376 C52.722,7.98 52.338,7.569 51.966,7.143 C51.594,6.717 51.234,6.282 50.886,5.838 L50.886,5.838 L51.678,5.838 C51.786,5.694 51.903,5.526 52.029,5.334 C52.155,5.142 52.281,4.938 52.407,4.722 C52.533,4.506 52.656,4.287 52.776,4.065 C52.896,3.843 53.01,3.63 53.118,3.426 L53.118,3.426 L51.228,3.426 C51.108,3.666 50.964,3.921 50.796,4.191 C50.628,4.461 50.448,4.734 50.256,5.01 C50.016,4.686 49.788,4.365 49.572,4.047 C49.356,3.729 49.152,3.414 48.96,3.102 L48.96,3.102 L50.436,3.102 C50.7,2.814 50.97,2.463 51.246,2.049 C51.522,1.635 51.762,1.242 51.966,0.87 L51.966,0.87 L49.95,0.87 C49.782,1.17 49.59,1.482 49.374,1.806 C49.158,2.13 48.936,2.43 48.708,2.706 C48.504,2.37 48.318,2.046 48.15,1.734 C47.982,1.422 47.832,1.122 47.7,0.834 L47.7,0.834 L45.504,0.834 C46.224,2.226 47.028,3.606 47.916,4.974 L47.916,4.974 L42.408,4.974 C42.876,4.314 43.308,3.636 43.704,2.94 C44.1,2.244 44.43,1.566 44.694,0.906 L44.694,0.906 L37.386,0.906 L37.386,2.328 L41.994,2.328 C41.526,3.24 40.86,4.206 39.996,5.226 C39.828,4.902 39.654,4.575 39.474,4.245 C39.294,3.915 39.138,3.636 39.006,3.408 L39.006,3.408 L37.134,3.408 C37.242,3.576 37.359,3.774 37.485,4.002 C37.611,4.23 37.731,4.464 37.845,4.704 C37.959,4.944 38.067,5.184 38.169,5.424 C38.271,5.664 38.358,5.874 38.43,6.054 L38.43,6.054 L39.276,6.054 C38.904,6.45 38.517,6.843 38.115,7.233 C37.713,7.623 37.296,8.004 36.864,8.376 L36.864,8.376 L38.808,8.376 L38.808,12.606 L51.21,12.606 Z M49.914,7.782 L40.05,7.782 C40.458,7.374 40.86,6.936 41.256,6.468 L41.256,6.468 L48.942,6.468 C49.11,6.696 49.272,6.921 49.428,7.143 C49.584,7.365 49.746,7.578 49.914,7.782 L49.914,7.782 Z M49.248,11.094 L40.788,11.094 L40.788,9.276 L49.248,9.276 L49.248,11.094 Z M53.064,16.854 L53.064,15.234 L49.572,15.234 C49.812,14.886 50.028,14.526 50.22,14.154 C50.412,13.782 50.58,13.422 50.724,13.074 L50.724,13.074 L48.546,13.074 C48.414,13.386 48.24,13.734 48.024,14.118 C47.808,14.502 47.574,14.874 47.322,15.234 L47.322,15.234 L42.606,15.234 C42.414,14.838 42.204,14.442 41.976,14.046 C41.748,13.65 41.544,13.326 41.364,13.074 L41.364,13.074 L39.168,13.074 C39.348,13.35 39.549,13.686 39.771,14.082 C39.993,14.478 40.188,14.862 40.356,15.234 L40.356,15.234 L36.918,15.234 L36.918,16.854 L53.064,16.854 Z M63.18,16.854 C63.468,16.494 63.705,15.984 63.891,15.324 C64.077,14.664 64.17,13.824 64.17,12.804 L64.17,12.804 L64.17,8.286 L71.154,8.286 L71.154,6.702 L68.886,6.702 L69.318,0.996 L55.71,0.996 L55.71,2.598 L67.212,2.598 L67.086,3.876 L56.178,3.876 L56.178,5.424 L66.942,5.424 L66.834,6.702 L54.846,6.702 L54.846,8.286 L62.046,8.286 L62.046,12.804 C62.034,13.764 61.893,14.571 61.623,15.225 C61.353,15.879 61.002,16.422 60.57,16.854 L60.57,16.854 L63.18,16.854 Z M60.318,12.03 C60.006,11.418 59.685,10.848 59.355,10.32 C59.025,9.792 58.692,9.336 58.356,8.952 L58.356,8.952 L56.052,8.952 C56.232,9.192 56.415,9.447 56.601,9.717 C56.787,9.987 56.964,10.257 57.132,10.527 C57.3,10.797 57.453,11.061 57.591,11.319 C57.729,11.577 57.852,11.814 57.96,12.03 L57.96,12.03 L60.318,12.03 Z M68.202,12.03 C68.31,11.802 68.442,11.553 68.598,11.283 C68.754,11.013 68.916,10.737 69.084,10.455 C69.252,10.173 69.426,9.903 69.606,9.645 C69.786,9.387 69.954,9.156 70.11,8.952 L70.11,8.952 L67.806,8.952 C67.662,9.132 67.5,9.348 67.32,9.6 C67.14,9.852 66.96,10.119 66.78,10.401 C66.6,10.683 66.426,10.968 66.258,11.256 C66.09,11.544 65.946,11.802 65.826,12.03 L65.826,12.03 L68.202,12.03 Z M57.906,16.854 C58.122,16.566 58.341,16.242 58.563,15.882 C58.785,15.522 58.995,15.153 59.193,14.775 C59.391,14.397 59.583,14.013 59.769,13.623 C59.955,13.233 60.12,12.858 60.264,12.498 L60.264,12.498 L57.996,12.498 C57.864,12.786 57.708,13.11 57.528,13.47 C57.348,13.83 57.147,14.202 56.925,14.586 C56.703,14.97 56.463,15.357 56.205,15.747 C55.947,16.137 55.686,16.506 55.422,16.854 L55.422,16.854 L57.906,16.854 Z M70.578,16.854 C70.326,16.518 70.083,16.155 69.849,15.765 C69.615,15.375 69.393,14.988 69.183,14.604 C68.973,14.22 68.781,13.845 68.607,13.479 C68.433,13.113 68.28,12.786 68.148,12.498 L68.148,12.498 L65.88,12.498 C66.204,13.278 66.552,14.052 66.924,14.82 C67.296,15.588 67.686,16.266 68.094,16.854 L68.094,16.854 L70.578,16.854 Z" id="用户登录" fill="#FFFFFF" fill-rule="nonzero"></path>
            <polygon id="Rectangle-2-Copy-7" fill="#4AF6CD" points="0 32 80 32 80 33 0 33"></polygon>
            <path d="M5.632,58.248 C6.35733333,58.248 7.016,58.1466667 7.608,57.944 C8.2,57.7413333 8.704,57.4426667 9.12,57.048 C9.536,56.6533333 9.85866667,56.1653333 10.088,55.584 C10.3173333,55.0026667 10.432,54.3386667 10.432,53.592 L10.432,53.592 L10.432,45.208 L8.512,45.208 L8.512,53.608 C8.512,54.088 8.43733333,54.5146667 8.288,54.888 C8.13866667,55.2613333 7.936,55.576 7.68,55.832 C7.424,56.088 7.12,56.2826667 6.768,56.416 C6.416,56.5493333 6.03733333,56.616 5.632,56.616 C5.22666667,56.616 4.84533333,56.552 4.488,56.424 C4.13066667,56.296 3.82133333,56.104 3.56,55.848 C3.29866667,55.592 3.09333333,55.2773333 2.944,54.904 C2.79466667,54.5306667 2.72,54.0986667 2.72,53.608 L2.72,53.608 L2.72,45.208 L0.816,45.208 L0.816,53.592 C0.816,54.3493333 0.928,55.016 1.152,55.592 C1.376,56.168 1.69866667,56.6533333 2.12,57.048 C2.54133333,57.4426667 3.048,57.7413333 3.64,57.944 C4.232,58.1466667 4.896,58.248 5.632,58.248 Z M15.248,58.248 C15.8026667,58.248 16.2933333,58.176 16.72,58.032 C17.1466667,57.888 17.504,57.688 17.792,57.432 C18.08,57.176 18.2986667,56.8746667 18.448,56.528 C18.5973333,56.1813333 18.672,55.8 18.672,55.384 C18.672,54.936 18.6026667,54.552 18.464,54.232 C18.3253333,53.912 18.128,53.632 17.872,53.392 C17.616,53.152 17.3093333,52.9413333 16.952,52.76 C16.5946667,52.5786667 16.1973333,52.4133333 15.76,52.264 L15.76,52.264 L15.088,52.008 C14.864,51.9226667 14.664,51.8213333 14.488,51.704 C14.312,51.5866667 14.168,51.4506667 14.056,51.296 C13.944,51.1413333 13.888,50.952 13.888,50.728 C13.888,50.376 14.0373333,50.0986667 14.336,49.896 C14.6346667,49.6933333 15.024,49.592 15.504,49.592 C15.92,49.592 16.32,49.6426667 16.704,49.744 C17.088,49.8453333 17.4346667,49.9706667 17.744,50.12 L17.744,50.12 L18.24,48.744 C17.8666667,48.5413333 17.432,48.3733333 16.936,48.24 C16.44,48.1066667 15.904,48.04 15.328,48.04 C14.8053333,48.04 14.3386667,48.112 13.928,48.256 C13.5173333,48.4 13.1706667,48.5946667 12.888,48.84 C12.6053333,49.0853333 12.3893333,49.376 12.24,49.712 C12.0906667,50.048 12.016,50.4133333 12.016,50.808 C12.016,51.2346667 12.0933333,51.6053333 12.248,51.92 C12.4026667,52.2346667 12.6106667,52.512 12.872,52.752 C13.1333333,52.992 13.44,53.1973333 13.792,53.368 C14.144,53.5386667 14.5173333,53.6933333 14.912,53.832 C15.552,54.056 16.0266667,54.2826667 16.336,54.512 C16.6453333,54.7413333 16.8,55.0586667 16.8,55.464 C16.8,55.8373333 16.648,56.136 16.344,56.36 C16.04,56.584 15.6106667,56.696 15.056,56.696 C14.6613333,56.696 14.2106667,56.624 13.704,56.48 C13.1973333,56.336 12.7306667,56.1253333 12.304,55.848 L12.304,55.848 L11.744,57.208 C12.2026667,57.5173333 12.736,57.768 13.344,57.96 C13.952,58.152 14.5866667,58.248 15.248,58.248 Z M24.368,58.248 C25.104,58.248 25.7466667,58.152 26.296,57.96 C26.8453333,57.768 27.3386667,57.5173333 27.776,57.208 L27.776,57.208 L27.312,55.8 C26.9386667,56.0346667 26.5306667,56.2293333 26.088,56.384 C25.6453333,56.5386667 25.1413333,56.616 24.576,56.616 C24.1706667,56.616 23.8,56.544 23.464,56.4 C23.128,56.256 22.8346667,56.0533333 22.584,55.792 C22.3333333,55.5306667 22.1333333,55.216 21.984,54.848 C21.8346667,54.48 21.744,54.072 21.712,53.624 L21.712,53.624 L28.16,53.624 C28.1813333,53.496 28.192,53.3573333 28.192,53.208 L28.192,53.208 L28.192,52.84 C28.192,52.136 28.104,51.488 27.928,50.896 C27.752,50.304 27.4906667,49.7973333 27.144,49.376 C26.7973333,48.9546667 26.3706667,48.6266667 25.864,48.392 C25.3573333,48.1573333 24.7786667,48.04 24.128,48.04 C23.424,48.04 22.8026667,48.1706667 22.264,48.432 C21.7253333,48.6933333 21.272,49.0533333 20.904,49.512 C20.536,49.9706667 20.2586667,50.5093333 20.072,51.128 C19.8853333,51.7466667 19.792,52.408 19.792,53.112 C19.792,53.9226667 19.9013333,54.6453333 20.12,55.28 C20.3386667,55.9146667 20.648,56.4533333 21.048,56.896 C21.448,57.3386667 21.9306667,57.6746667 22.496,57.904 C23.0613333,58.1333333 23.6853333,58.248 24.368,58.248 Z M26.384,52.216 L21.744,52.216 C21.7866667,51.8106667 21.8773333,51.4506667 22.016,51.136 C22.1546667,50.8213333 22.3306667,50.5546667 22.544,50.336 C22.7573333,50.1173333 22.9973333,49.952 23.264,49.84 C23.5306667,49.728 23.8133333,49.672 24.112,49.672 C24.752,49.672 25.2773333,49.904 25.688,50.368 C26.0986667,50.832 26.3306667,51.448 26.384,52.216 L26.384,52.216 Z M31.472,57.928 L31.472,51.432 C31.8133333,50.8026667 32.2213333,50.3493333 32.696,50.072 C33.1706667,49.7946667 33.6533333,49.656 34.144,49.656 C34.3573333,49.656 34.544,49.6693333 34.704,49.696 C34.864,49.7226667 35.0186667,49.752 35.168,49.784 L35.168,49.784 L35.184,48.184 C35.0453333,48.1413333 34.88,48.1066667 34.688,48.08 C34.496,48.0533333 34.2826667,48.04 34.048,48.04 C33.504,48.04 33.008,48.1946667 32.56,48.504 C32.112,48.8133333 31.7333333,49.256 31.424,49.832 L31.424,49.832 L31.424,48.36 L29.6,48.36 L29.6,57.928 L31.472,57.928 Z M48.864,57.928 L48.864,56.296 L42.976,56.296 L42.976,45.192 L41.072,45.192 L41.072,57.928 L48.864,57.928 Z M54.304,58.248 C54.9866667,58.248 55.6,58.12 56.144,57.864 C56.688,57.608 57.1466667,57.2506667 57.52,56.792 C57.8933333,56.3333333 58.1786667,55.792 58.376,55.168 C58.5733333,54.544 58.672,53.8693333 58.672,53.144 C58.672,52.4293333 58.5733333,51.7626667 58.376,51.144 C58.1786667,50.5253333 57.8933333,49.9866667 57.52,49.528 C57.1466667,49.0693333 56.688,48.7066667 56.144,48.44 C55.6,48.1733333 54.9866667,48.04 54.304,48.04 C53.6106667,48.04 52.9946667,48.1733333 52.456,48.44 C51.9173333,48.7066667 51.4586667,49.0693333 51.08,49.528 C50.7013333,49.9866667 50.4133333,50.5253333 50.216,51.144 C50.0186667,51.7626667 49.92,52.4293333 49.92,53.144 C49.92,53.8693333 50.0186667,54.544 50.216,55.168 C50.4133333,55.792 50.7013333,56.3333333 51.08,56.792 C51.4586667,57.2506667 51.9173333,57.608 52.456,57.864 C52.9946667,58.12 53.6106667,58.248 54.304,58.248 Z M54.304,56.616 C53.9306667,56.616 53.5893333,56.528 53.28,56.352 C52.9706667,56.176 52.7066667,55.9306667 52.488,55.616 C52.2693333,55.3013333 52.0986667,54.9333333 51.976,54.512 C51.8533333,54.0906667 51.792,53.6346667 51.792,53.144 C51.792,52.664 51.8533333,52.2106667 51.976,51.784 C52.0986667,51.3573333 52.2693333,50.9893333 52.488,50.68 C52.7066667,50.3706667 52.9706667,50.1253333 53.28,49.944 C53.5893333,49.7626667 53.9306667,49.672 54.304,49.672 C54.688,49.672 55.0373333,49.7626667 55.352,49.944 C55.6666667,50.1253333 55.9306667,50.3706667 56.144,50.68 C56.3573333,50.9893333 56.5226667,51.3573333 56.64,51.784 C56.7573333,52.2106667 56.816,52.664 56.816,53.144 C56.816,53.6346667 56.7573333,54.0906667 56.64,54.512 C56.5226667,54.9333333 56.3573333,55.3013333 56.144,55.616 C55.9306667,55.9306667 55.6666667,56.176 55.352,56.352 C55.0373333,56.528 54.688,56.616 54.304,56.616 Z M63.952,62.088 C65.3066667,62.088 66.3173333,61.736 66.984,61.032 C67.6506667,60.328 67.984,59.3253333 67.984,58.024 L67.984,58.024 L67.984,48.36 L66.144,48.36 L66.144,49.256 C65.8346667,48.936 65.4426667,48.6533333 64.968,48.408 C64.4933333,48.1626667 64.0053333,48.04 63.504,48.04 C62.9173333,48.04 62.3973333,48.1653333 61.944,48.416 C61.4906667,48.6666667 61.112,49.016 60.808,49.464 C60.504,49.912 60.272,50.448 60.112,51.072 C59.952,51.696 59.872,52.376 59.872,53.112 C59.872,53.848 59.952,54.5253333 60.112,55.144 C60.272,55.7626667 60.5093333,56.2933333 60.824,56.736 C61.1386667,57.1786667 61.52,57.5253333 61.968,57.776 C62.416,58.0266667 62.928,58.152 63.504,58.152 C64.0906667,58.152 64.608,58.0053333 65.056,57.712 C65.504,57.4186667 65.8773333,57.0906667 66.176,56.728 L66.176,56.728 L66.176,57.832 C66.176,58.696 65.9733333,59.3413333 65.568,59.768 C65.1626667,60.1946667 64.576,60.408 63.808,60.408 C63.2,60.408 62.6133333,60.352 62.048,60.24 C61.4826667,60.128 60.9653333,59.9866667 60.496,59.816 L60.496,59.816 L60.224,61.432 C60.768,61.624 61.3653333,61.7813333 62.016,61.904 C62.6666667,62.0266667 63.312,62.088 63.952,62.088 Z M63.92,56.536 C63.2693333,56.536 62.7493333,56.2266667 62.36,55.608 C61.9706667,54.9893333 61.776,54.1466667 61.776,53.08 C61.776,52.0133333 61.9733333,51.1786667 62.368,50.576 C62.7626667,49.9733333 63.28,49.672 63.92,49.672 C64.336,49.672 64.736,49.7813333 65.12,50 C65.504,50.2186667 65.8346667,50.4933333 66.112,50.824 L66.112,50.824 L66.112,55.144 C65.8453333,55.5173333 65.52,55.8426667 65.136,56.12 C64.752,56.3973333 64.3466667,56.536 63.92,56.536 Z M71.792,46.904 L71.792,44.52 L69.952,44.52 L69.952,46.904 L71.792,46.904 Z M71.824,57.928 L71.824,48.36 L69.952,48.36 L69.952,57.928 L71.824,57.928 Z M75.76,57.928 L75.76,51.144 C75.9306667,50.92 76.1253333,50.7173333 76.344,50.536 C76.5626667,50.3546667 76.7866667,50.2 77.016,50.072 C77.2453333,49.944 77.4693333,49.8453333 77.688,49.776 C77.9066667,49.7066667 78.1066667,49.672 78.288,49.672 C78.768,49.672 79.1466667,49.8133333 79.424,50.096 C79.7013333,50.3786667 79.84,50.744 79.84,51.192 L79.84,51.192 L79.84,57.928 L81.712,57.928 L81.712,50.76 C81.712,50.3973333 81.6506667,50.0506667 81.528,49.72 C81.4053333,49.3893333 81.2293333,49.0986667 81,48.848 C80.7706667,48.5973333 80.4853333,48.4 80.144,48.256 C79.8026667,48.112 79.408,48.04 78.96,48.04 C78.672,48.04 78.376,48.0826667 78.072,48.168 C77.768,48.2533333 77.472,48.368 77.184,48.512 C76.896,48.656 76.6186667,48.832 76.352,49.04 C76.0853333,49.248 75.84,49.4693333 75.616,49.704 C75.5946667,49.4693333 75.5626667,49.2373333 75.52,49.008 C75.4773333,48.7786667 75.4293333,48.5626667 75.376,48.36 L75.376,48.36 L73.504,48.36 C73.632,48.84 73.7253333,49.4026667 73.784,50.048 C73.8426667,50.6933333 73.872,51.4053333 73.872,52.184 L73.872,52.184 L73.872,57.928 L75.76,57.928 Z" id="UserLogin" fill="#FFFFFF" fill-rule="nonzero"></path>
        </g>
    </g>
</svg>