<?xml version="1.0" encoding="UTF-8"?>
<svg width="17px" height="14px" viewBox="0 0 17 14" version="1.1" xmlns="http://www.w3.org/2000/svg" xmlns:xlink="http://www.w3.org/1999/xlink">
    <title>Shape Copy</title>
    <g id="Page-1" stroke="none" stroke-width="1" fill="none" fill-rule="evenodd">
        <path d="M5.87089157,0.376328132 L0.377417805,5.82779298 C-0.125805935,6.33017654 -0.125805935,7.14562348 0.377417805,7.64632668 L5.87089157,13.101023 C6.37833774,13.6034065 7.19966593,13.600886 7.70709056,13.101023 C8.20947412,12.5977992 8.20947412,11.785713 7.70709056,11.2824893 L4.49330069,8.09390477 L14.8027198,8.09390477 C15.5474625,8.09390477 16.1499996,7.49220782 16.1499996,6.74746512 C16.1499996,6.0035626 15.5474625,5.40102547 14.8027198,5.40102547 L4.47391196,5.40102547 L7.70709056,2.19563739 C8.20947412,1.69325382 8.20947412,0.880327422 7.70709056,0.37794386 C7.20048456,-0.12527988 6.37915638,-0.126120058 5.87089157,0.376260703 L5.87089157,0.376328132 Z" id="Shape-Copy" fill="#FFFFFF" fill-rule="nonzero" transform="translate(8.075000, 6.738433) rotate(-180.000000) translate(-8.075000, -6.738433) "></path>
    </g>
</svg>